<?xml version="1.0" encoding="UTF-8"?>
<!-- Created with Inkscape by Vulphere (http://www.inkscape.org/) -->
<svg width="105.1514" height="18.8392" version="1.1" viewBox="0 0 105.1514 18.8392" xmlns="http://www.w3.org/2000/svg">
<title>Dallara logo</title>
<desc>Italian auto racing constructor</desc>
 <g transform="translate(-.4838127 1587.579)">
  <path d="m6.896773-1568.753c-1.730878-0.082-3.44122-0.8735-4.597092-2.1267-0.955761-1.0362-1.557239-2.2891-1.750935-3.6473-0.0710454-0.4982-0.0854105-1.1613-0.0350635-1.6186 0.1260643-1.1449 0.5035106-2.1804 1.132285-3.1063 1.031614-1.5192 2.636217-2.5492 4.448225-2.8553 0.5390175-0.091 0.3961682-0.088 4.15594-0.088h3.472554l0.135089 0.036c0.374087 0.099 0.640431 0.326 0.839551 0.7167 0.06743 0.1323 1.274177 2.9701 1.274177 2.9964 0 0.01-2.061482 0.012-4.58107 0.014h-4.581069l-0.1918169 0.043c-1.045708 0.2341-1.864778 0.953-2.208483 1.9384-0.5732824 1.6437 0.39239 3.4228 2.090393 3.8512 0.3656429 0.092-0.079867 0.087 7.272222 0.087h6.746135l-0.0051 1.3866c-0.0047 1.276-0.0074 1.3943-0.03348 1.482-0.123896 0.4163-0.429878 0.7218-0.855257 0.8539l-0.116351 0.036h-6.253775c-3.439577 9e-4 -6.300262 0-6.357079 0zm18.53088-0.01c-0.629422-0.058-1.35097-0.2763-1.859445-0.5616-1.18527-0.665-1.819448-1.7297-1.940297-3.2573-0.02332-0.2948-0.01072-0.924 0.02417-1.2076 0.177111-1.4398 0.891189-2.4941 2.082998-3.0757 0.471152-0.2299 0.886353-0.3573 1.469874-0.4509l0.214751-0.034h3.226218c2.966466 0 3.235401 0 3.340296 0.027 0.409299 0.096 0.683238 0.3224 0.891903 0.7376 0.0465 0.093 1.204376 2.8036 1.270303 2.9743 0.0061 0.016-0.853816 0.021-4.193672 0.024h-4.201301l-0.09289 0.047c-0.116881 0.059-0.221974 0.1743-0.258471 0.2832-0.01684 0.05-0.02809 0.1331-0.02854 0.2101-0.0013 0.2167 0.09758 0.378 0.289548 0.4725l0.10558 0.052h5.018454c2.76015 0 5.018454 1e-3 5.018454 0 0-0.018-1.993216-4.7116-2.043456-4.8113-0.30619-0.608-0.802584-0.9275-1.624593-1.0455-0.506688-0.073-0.513092-0.073-4.461065-0.067-2.364599 0-3.808502-9e-4 -3.935721-0.011-0.476737-0.037-0.746082-0.176-0.993877-0.5119-0.100724-0.1365-0.181963-0.298-0.347244-0.6901-0.08473-0.2011-0.360659-0.8533-0.613174-1.4494-0.252514-0.5961-0.459116-1.0879-0.459116-1.093 0-0.01 2.461978-0.01 5.47106 0 5.89233 0.01 5.527328 1e-3 6.067016 0.082 1.150328 0.174 2.089269 0.6171 2.853714 1.347 0.625112 0.5968 1.113343 1.3535 1.576671 2.4436 0.496763 1.1688 4.040443 9.5651 4.040443 9.5734 0 0.016-15.73926 0.01-15.90859-0.01zm17.03697-9.3986v-9.417l1.370746 0.01c1.548033 0.01 1.451887 0 1.72833 0.1346 0.127086 0.063 0.173663 0.097 0.294301 0.2181 0.08125 0.082 0.169184 0.1885 0.203039 0.247 0.07143 0.1236 0.13475 0.3154 0.154665 0.4685 0.0086 0.066 0.01471 3.7099 0.015 8.936l5.04e-4 8.8245h-3.76657zm4.958522-1e-4v-9.4171l1.370744 0.01c1.367074 0.01 1.371057 0.01 1.487007 0.041 0.424438 0.1299 0.728871 0.4334 0.855788 0.8533 0.02767 0.092 0.02899 0.4535 0.03306 9.0152l0.0042 8.9197h-3.750843zm8.812499 9.3991c-0.674711-0.064-1.372179-0.279-1.91507-0.5896-1.088289-0.6227-1.703335-1.6117-1.875525-3.016-0.02801-0.2284-0.03787-0.8904-0.01716-1.1522 0.112712-1.4247 0.672186-2.4462 1.709915-3.122 0.504477-0.3285 1.12056-0.5516 1.858945-0.6732 0.206022-0.034 0.22358-0.034 3.353859-0.039 2.27924 0 3.188377 0 3.297734 0.013 0.182108 0.022 0.386893 0.087 0.523444 0.1673 0.19761 0.1158 0.402732 0.3602 0.532484 0.6344 0.03919 0.083 1.197034 2.8085 1.244092 2.9287 0.0061 0.016-0.853643 0.021-4.193567 0.024h-4.201301l-0.09063 0.044c-0.114903 0.056-0.22388 0.1758-0.260796 0.2857-0.04369 0.1301-0.03815 0.3157 0.01276 0.4266 0.05742 0.1251 0.138185 0.2081 0.255038 0.262l0.09952 0.046h5.018118c2.759966 0 5.018119-8e-4 5.018119-0.01 0-0.017-1.952881-4.6264-2.018932-4.7657-0.274136-0.5781-0.75119-0.9244-1.453622-1.0552-0.572252-0.1066-0.51233-0.1053-4.648613-0.1-2.368659 0-3.816501-9e-4 -3.943668-0.011-0.237262-0.019-0.378143-0.051-0.530127-0.1208-0.221032-0.102-0.395869-0.2691-0.552005-0.5277-0.04509-0.075-0.326561-0.7184-0.70323-1.6084-0.345426-0.8161-0.628049-1.4868-0.628049-1.4902h5.463115c6.005757 0.01 5.578936 0 6.175348 0.099 2.009452 0.3397 3.359531 1.4905 4.278279 3.647 0.335506 0.7875 4.081695 9.6606 4.087955 9.6826 0.0075 0.026-0.374351 0.028-7.872744 0.026-4.33436 0-7.945022-0.01-8.023691-0.016zm16.98549-4.7777c0.0056-5.3074-0.0014-4.9482 0.106936-5.4876 0.32574-1.6216 1.407123-2.689 3.10719-3.0668 0.495864-0.1102 0.22455-0.1031 3.941388-0.1031h3.35336l0.135088 0.035c0.361326 0.095 0.646315 0.3349 0.835335 0.7035 0.02465 0.048 0.321747 0.7418 0.6602 1.5416l0.615372 1.4542-7.967366 0.02-0.140212 0.044c-0.24512 0.077-0.391585 0.1688-0.56529 0.3548-0.08807 0.094-0.133286 0.1608-0.192615 0.2834-0.138421 0.286-0.126961-0.1394-0.126961 4.7127v4.3076h-3.767466zm16.50042 4.7777c-0.205348-0.02-0.511632-0.072-0.723111-0.1249-1.445829-0.3587-2.425592-1.2177-2.851609-2.5002-0.328332-0.9885-0.331599-2.2992-0.0082-3.3088 0.348138-1.087 1.138066-1.9037 2.257049-2.3334 0.341309-0.1311 0.674782-0.2184 1.087544-0.2848l0.222492-0.036h6.468333l0.143033 0.037c0.354614 0.093 0.609325 0.2933 0.8021 0.6308 0.05443 0.095 1.269575 2.9303 1.312656 3.0625 0.0086 0.026-0.196663 0.028-4.161014 0.028-3.845718 0-4.176166 0-4.248393 0.026-0.144158 0.049-0.240121 0.1275-0.306216 0.2517-0.03872 0.073-0.04228 0.095-0.04228 0.2623 0 0.1726 0.0026 0.1874 0.04683 0.2672 0.05701 0.103 0.129905 0.1691 0.246463 0.2238l0.08814 0.041h5.020002c4.781242 0 5.019619 0 5.012049-0.024-0.0122-0.043-1.99556-4.72-2.032963-4.7941-0.07396-0.1465-0.215461-0.343-0.336967-0.4679-0.313339-0.322-0.716686-0.4965-1.344775-0.5817-0.436533-0.059-0.550714-0.061-4.58504-0.071l-3.973178-0.01-0.119196-0.036c-0.35857-0.1093-0.601572-0.319-0.79118-0.6825-0.05649-0.1083-1.135303-2.6271-1.28619-3.0029-0.01037-0.026 10.45646-0.029 10.85836 0 1.310934 0.084 2.363201 0.4557 3.217998 1.1375 0.191338 0.1526 0.636404 0.6023 0.800624 0.809 0.31173 0.3922 0.6577 0.9611 0.89052 1.4643 0.0641 0.1387 1.02314 2.3976 2.1311 5.0199s2.03791 4.8232 2.06657 4.891l0.0521 0.1231h-7.885273c-4.336905 0-7.949649-0.01-8.028318-0.016zm-82.68969-4.8467c-0.7803191-0.071-1.436745-0.6362-1.640427-1.4118-0.04922-0.1874-0.066476-0.5319-0.03683-0.7352 0.1193106-0.8183 0.8031286-1.4833 1.629579-1.5846 0.1013666-0.012 1.547004-0.017 4.962493-0.017l4.819461-1e-4v-10.2203l1.370745 0.01c1.367073 0.01 1.371056 0.01 1.487006 0.041 0.424445 0.1299 0.72903 0.4336 0.855757 0.8533 0.02756 0.091 0.02897 0.3733 0.03309 6.5915l0.0043 6.4962h-6.671073c-3.669091 0-6.735439-0.01-6.814108-0.015z" fill="#fdc300" stroke-width=".0158927"/>
 </g>
</svg>