<?xml version="1.0" encoding="UTF-8" standalone="no"?>
<!DOCTYPE svg PUBLIC "-//W3C//DTD SVG 1.0//EN" "http://www.w3.org/TR/2001/REC-SVG-20010904/DTD/svg10.dtd">
<!-- Created with Inkscape (http://www.inkscape.org/) -->
<svg
   xmlns:svg="http://www.w3.org/2000/svg"
   xmlns="http://www.w3.org/2000/svg"
   version="1.0"
   width="800"
   height="150"
   id="svg2">
  <defs
     id="defs4" />
  <g
     id="layer1">
    <path
       d="M 421.61734,17.526785 C 420.32204,17.526785 419.02677,17.850566 417.85469,18.534637 C 415.51054,19.902779 414.05366,22.405371 414.09204,25.119273 L 414.09204,47.157645 L 355.77098,47.157645 C 339.60796,47.157645 326.34165,60.423885 326.34169,76.586934 C 326.34169,92.749962 339.60796,106.01622 355.77098,106.01622 L 429.14264,106.01622 L 429.14264,54.682942 L 429.14264,47.157645 L 429.14264,25.119273 C 429.18101,22.405371 427.7241,19.902779 425.37999,18.534637 C 424.20795,17.850566 422.91264,17.526785 421.61734,17.526785 z M 22.84375,47.157645 L 23.381271,128.05459 C 23.342892,130.76848 24.799811,133.27108 27.14392,134.63923 C 29.488007,136.00737 32.325088,136.00737 34.669218,134.63923 C 37.01337,133.27108 38.470246,130.76848 38.431867,128.05459 L 38.431867,106.01622 L 96.752924,106.01622 C 112.91595,106.01622 126.18226,92.74999 126.18221,76.586934 C 126.18221,60.423902 112.91595,47.157643 96.752924,47.157645 L 22.84375,47.157645 z M 162.06176,47.157645 C 145.89873,47.157645 132.63249,60.423904 132.63247,76.586934 L 132.63247,106.01622 L 147.68306,106.01622 L 147.68306,76.586934 C 147.68306,68.501606 153.97643,62.20824 162.06176,62.20824 L 202.37585,62.20824 C 205.08975,62.246621 207.59232,60.789702 208.96049,58.445591 C 210.32865,56.101478 210.32863,53.264404 208.96049,50.920294 C 207.59235,48.576185 205.08975,47.119264 202.37585,47.157645 L 162.06176,47.157645 z M 242.48838,47.157645 C 226.32535,47.157645 213.05904,60.423882 213.05909,76.586934 C 213.05909,92.749966 226.32537,106.01622 242.48838,106.01622 L 286.63231,106.01622 C 302.79534,106.01622 316.06158,92.74996 316.0616,76.586934 C 316.0616,60.423902 302.79534,47.157643 286.63231,47.157645 L 242.48838,47.157645 z M 471.27087,47.157645 C 455.10777,47.157645 441.8416,60.423906 441.84158,76.586934 L 441.84158,106.01622 L 456.89217,106.01622 L 456.89217,76.586934 C 456.89211,68.501604 463.18553,62.20824 471.27087,62.20824 L 511.58496,62.20824 C 514.29893,62.246619 516.80143,60.7897 518.1696,58.445591 C 519.53782,56.101483 519.53774,53.264402 518.1696,50.920294 C 516.80152,48.576185 514.29886,47.119266 511.58496,47.157645 L 471.27087,47.157645 z M 528.65126,47.157645 L 528.65126,106.01622 L 543.70186,106.01622 L 543.70186,47.157645 L 528.65126,47.157645 z M 556.66956,47.157645 L 556.66956,106.01622 L 631.31782,106.01622 C 641.63148,106.01622 650.19826,97.449444 650.19826,87.135789 L 650.19826,47.157645 L 635.14766,47.157645 L 635.14766,87.135789 C 635.14766,89.371727 633.55385,90.965628 631.31782,90.965628 L 571.72015,90.965628 L 571.72015,47.157645 L 556.66956,47.157645 z M 661.88934,47.157645 L 661.88934,72.757095 L 661.88934,84.851323 L 661.88934,86.867028 C 661.88936,97.180684 670.45612,105.74746 680.76978,105.74746 L 754.47738,105.74746 C 757.1913,105.78584 759.69385,104.32892 761.06202,101.98481 C 762.43014,99.640704 762.43016,96.803624 761.06202,94.459514 C 759.69383,92.115409 757.19128,90.658486 754.47738,90.696867 L 680.76978,90.696867 C 678.53378,90.696869 676.93994,89.102964 676.93994,86.867028 L 676.93994,84.851323 L 743.72696,84.851323 C 754.04059,84.851319 762.60745,76.351781 762.60739,66.038079 C 762.60739,55.724433 754.04059,47.157645 743.72696,47.157645 L 661.88934,47.157645 z M 38.431867,62.20824 L 96.752924,62.20824 C 104.83823,62.20824 111.13162,68.501608 111.13162,76.586934 C 111.13164,84.672236 104.83825,90.965628 96.752924,90.965628 L 38.431867,90.965628 L 38.431867,62.20824 z M 242.48838,62.20824 L 286.63231,62.20824 C 294.71766,62.20824 301.011,68.501608 301.011,76.586934 C 301.011,84.672266 294.71764,90.965628 286.63231,90.965628 L 242.48838,90.965628 C 234.40307,90.965628 228.10968,84.67226 228.10968,76.586934 C 228.10966,68.501627 234.40305,62.20824 242.48838,62.20824 z M 355.77098,62.20824 L 414.09204,62.20824 L 414.09204,90.965628 L 355.77098,90.965628 C 347.68567,90.965628 341.39229,84.672264 341.39229,76.586934 C 341.39227,68.501625 347.68565,62.20824 355.77098,62.20824 z M 680.76978,62.20824 L 743.72696,62.20824 C 745.96285,62.208236 747.5568,63.802135 747.5568,66.038079 C 747.55682,68.273963 745.96289,69.800728 743.72696,69.800728 L 680.76978,69.800728 C 678.53375,69.800726 676.93994,68.274024 676.93994,66.038079 C 676.93994,63.802133 678.53384,62.20824 680.76978,62.20824 z"
       id="rect3616"
       style="fill:#000000;fill-opacity:1;fill-rule:nonzero;stroke:none;stroke-width:7;stroke-linecap:butt;stroke-linejoin:miter;stroke-miterlimit:4;stroke-dasharray:none;stroke-dashoffset:0;stroke-opacity:1" />
    <path
       d="M 56.884499,126.60238 L 755.10667,126.60238"
       id="path3725"
       style="fill:#0089d1;fill-opacity:1;fill-rule:evenodd;stroke:#0088d2;stroke-width:15.05059528;stroke-linecap:round;stroke-linejoin:miter;stroke-miterlimit:4;stroke-dasharray:none;stroke-opacity:1" />
  </g>
</svg>
